<svg xmlns="http://www.w3.org/2000/svg" width="18" height="18" viewBox="0 0 18 18">
  <defs>
    <style>
      .cls-1 {
        fill: #5bc2e7;
        fill-rule: evenodd;
      }
    </style>
  </defs>
  <path id="Newletter_Icon" data-name="Newletter Icon" class="cls-1" d="M1528.04,4895.77a0.249,0.249,0,0,0-.28-0.28h-6.19a0.253,0.253,0,0,0-.28.28v0.57a0.253,0.253,0,0,0,.28.28h6.19a0.249,0.249,0,0,0,.28-0.28v-0.57Zm-0.28-1.4a0.249,0.249,0,0,0,.28-0.28v-0.57a0.249,0.249,0,0,0-.28-0.28h-6.19a0.253,0.253,0,0,0-.28.28v0.57a0.253,0.253,0,0,0,.28.28h6.19Zm3.66-2.29v-1.09a1.06,1.06,0,0,0-.34-0.79,1.073,1.073,0,0,0-.79-0.33h-1.62a2.876,2.876,0,0,0-.38-0.28,3.2,3.2,0,0,0-.49-0.44c-0.31-.25-0.54-0.43-0.71-0.55s-0.39-.27-0.68-0.46a3.6,3.6,0,0,0-.88-0.4,3.3,3.3,0,0,0-.86-0.12,3.242,3.242,0,0,0-.86.12,3.288,3.288,0,0,0-.88.4c-0.3.19-.53,0.34-0.69,0.46s-0.4.3-.7,0.55a2.353,2.353,0,0,0-.49.44,0.819,0.819,0,0,0-.2.14,1.262,1.262,0,0,1-.19.14h-1.62a1.127,1.127,0,0,0-1.12,1.12v1.09c-0.99.8-1.53,1.23-1.62,1.3a1.637,1.637,0,0,0-.63,1.3v9.25a1.592,1.592,0,0,0,.49,1.19,1.633,1.633,0,0,0,1.19.5h14.63a1.707,1.707,0,0,0,1.69-1.69v-9.21a1.6,1.6,0,0,0-.6-1.3c-0.09-.07-0.65-0.52-1.65-1.34h0Zm-4.54-2.21h-4.43a2.736,2.736,0,0,1,4.43,0h0Zm3.41,1.12v6.08q-2.04,1.665-3.06,2.46-0.975.81-1.23,0.99a4.811,4.811,0,0,1-.65.39,1.222,1.222,0,0,1-1.37,0,4.811,4.811,0,0,1-.65-0.39q-0.24-.18-1.23-0.99-0.99-.765-3.06-2.46v-6.08h11.25Zm-13.29,3.27c0.03-.02.33-0.27,0.92-0.74v2.67c-0.31-.25-0.68-0.56-1.13-0.91v-0.6a0.54,0.54,0,0,1,.21-0.42h0Zm15.38,10.07a0.52,0.52,0,0,1-.4.16h-14.63a0.535,0.535,0,0,1-.4-0.16,0.52,0.52,0,0,1-.16-0.4v-7.21c2.16,1.74,3.69,2.97,4.61,3.69,0.04,0.03.2,0.16,0.45,0.39a8.3,8.3,0,0,0,.64.53,7.56,7.56,0,0,0,.65.42,3.727,3.727,0,0,0,.79.37,2.484,2.484,0,0,0,.74.12,2.422,2.422,0,0,0,.73-0.12,3.448,3.448,0,0,0,.78-0.37q0.39-.24.63-0.42c0.16-.12.38-0.3,0.65-0.53s0.43-.36.48-0.39c0.86-.68,2.4-1.91,4.6-3.69v7.21A0.52,0.52,0,0,1,1532.38,4904.33Zm-0.37-8.63c-0.25.21-.45,0.38-0.59,0.49v-2.67c0.56,0.45.86,0.69,0.91,0.74a0.574,0.574,0,0,1,.21.46v0.56C1532.45,4895.35,1532.27,4895.49,1532.01,4895.7Z" transform="translate(-1515.66 -4887.62)"/>
</svg>
